<svg width="79" height="70" viewBox="0 0 79 70" fill="none" xmlns="http://www.w3.org/2000/svg">
<path d="M18.4639 54.7641C17.8091 54.6437 17.2853 54.5234 16.6306 54.2827C15.9758 54.042 15.452 53.9217 14.9282 53.681C13.7497 53.1997 12.7021 52.598 11.6545 51.8759C9.55931 50.5522 7.85697 48.7472 6.54747 46.5811C5.23798 44.5353 4.45228 42.1286 4.32133 39.8421C4.19038 38.6388 4.32133 37.5557 4.45228 36.3523C4.58323 35.7507 4.71418 35.2693 4.84513 34.6676C4.97608 34.0659 5.23798 33.5846 5.36893 32.9829L5.49988 34.6676C5.49988 35.2693 5.63083 35.7507 5.76178 36.3523C5.89272 37.4354 6.15462 38.5184 6.41652 39.4811C6.94032 41.5269 7.72602 43.4523 8.90456 45.2574C10.0831 47.0624 11.3926 48.7472 13.0949 50.3115C13.8806 51.0336 14.7973 51.7556 15.7139 52.4776C16.1068 52.8386 16.6306 53.1997 17.1544 53.5607L18.4639 54.7641ZM18.071 59.0962C17.6782 59.3369 17.1544 59.4572 16.6306 59.5776C16.1068 59.6979 15.7139 59.8182 15.1901 59.8182C14.2735 59.9386 13.2259 60.0589 12.1783 59.9386C10.2141 59.8182 8.11886 59.3369 6.41652 58.4945C4.58323 57.6522 3.01184 56.3284 1.96424 54.7641C1.44044 54.042 0.916646 53.1997 0.523798 52.3573C0.392848 51.9963 0.261899 51.5149 0.130949 51.0336C0.130949 50.6726 0 50.3116 0 49.8302C0.392848 50.1912 0.654747 50.5522 0.916646 50.7929C1.30949 51.1539 1.57139 51.5149 1.83329 51.7556C2.48804 52.3573 3.01184 52.959 3.66658 53.4403C4.97608 54.5234 6.28557 55.4861 7.85697 56.2081C9.29741 56.9301 10.9998 57.5318 12.5711 58.0132C13.3568 58.2539 14.2735 58.3742 15.1901 58.6149C15.583 58.7352 16.1068 58.7352 16.4996 58.8555C17.1544 58.9759 17.5472 58.9759 18.071 59.0962ZM47.6656 0.611967C48.3203 0.732305 48.8441 0.972981 49.4989 1.21366C50.1536 1.45433 50.6774 1.69501 51.2012 1.93568C52.3798 2.53737 53.4274 3.13906 54.475 3.86109C56.5701 5.30515 58.2725 7.23056 59.451 9.39664C60.6296 11.5627 61.2843 13.9695 61.2843 16.2559C61.2843 17.4593 61.1534 18.5423 60.8915 19.7457C60.7605 20.3474 60.6296 20.8287 60.3677 21.4304C60.1058 22.0321 59.9748 22.5135 59.7129 22.9948L59.582 21.3101C59.582 20.7084 59.582 20.2271 59.451 19.6254L59.0582 16.3762C58.6653 14.3305 57.8796 12.2847 56.8321 10.3593C55.7845 8.43393 54.475 6.7492 52.9036 5.18481C52.1179 4.34244 51.2012 3.62042 50.4155 2.77805C50.0227 2.41704 49.4989 2.05602 48.9751 1.69501L47.6656 0.611967ZM59.0582 0.130615C59.582 0.250953 59.9748 0.371291 60.3677 0.611967C60.7605 0.732305 61.2843 0.972981 61.6772 1.21366C62.4629 1.69501 63.2486 2.17636 64.0343 2.77805C65.4747 3.98143 66.6533 5.42549 67.308 7.11022C68.0937 8.79495 68.3556 10.6 68.0937 12.4051C67.9628 13.2475 67.7009 14.0898 67.439 14.9322C67.308 15.2932 67.0461 15.7745 66.9152 16.1356C66.6533 16.4966 66.5223 16.8576 66.1295 17.2186V16.0152V14.8118C66.1295 13.9695 65.9985 13.2475 65.9985 12.5254C65.7366 10.961 65.4747 9.51698 64.82 8.19326C64.1652 6.7492 63.3795 5.54582 62.4629 4.22211C61.9391 3.62042 61.4153 2.89839 60.8915 2.2967C60.6296 1.93568 60.3677 1.69501 59.9748 1.33399C59.7129 0.732305 59.3201 0.371291 59.0582 0.130615Z" fill="#42ADE2"/>
<path d="M10.4759 18.0609C7.85695 19.1439 6.94031 22.032 8.11885 24.4388L24.6185 56.0877L33.7849 52.1165L17.2853 20.3473C16.1068 17.9405 13.0949 16.8575 10.4759 18.0609ZM53.8202 43.2115L63.5105 38.9997L44.6537 2.8983C43.3442 0.491545 40.2015 -0.591497 37.4515 0.611883C34.8325 1.81526 33.654 4.70337 34.9635 7.23047L53.8202 43.2115Z" fill="#FFDD67"/>
<path d="M37.5826 0.491608C37.3207 0.611946 37.0588 0.732284 36.7969 0.97296C39.2849 0.37127 41.9039 1.45431 43.0824 3.6204L61.9392 39.7218L63.6415 38.9998L44.7848 2.89837C43.4753 0.371271 40.3325 -0.711771 37.5826 0.491608Z" fill="#EBA352"/>
<path d="M33.785 51.9962L43.8681 47.5437L24.6186 10.7203C23.3091 8.19319 19.9044 6.98981 17.1544 8.19319C14.4045 9.39657 13.226 12.5254 14.5354 15.0525L33.785 51.9962Z" fill="#FFDD67"/>
<path d="M17.1543 8.31354C16.8925 8.43387 16.6306 8.55421 16.3687 8.79489C18.8567 8.1932 21.7376 9.27624 22.9161 11.5627L34.8325 34.5472L37.7134 36.1116L24.6185 10.8406C23.309 8.1932 20.0352 7.11016 17.1543 8.31354Z" fill="#EBA352"/>
<path d="M42.2967 44.6556L52.3798 40.2031L33.1303 3.37968C31.8208 0.852586 28.4161 -0.350794 25.6662 0.972924C22.9162 2.1763 21.7377 5.30509 23.0472 7.83219L42.2967 44.6556Z" fill="#FFDD67"/>
<path d="M25.666 0.852598C25.4041 0.972936 25.1422 1.21361 24.8803 1.33395C27.3684 0.73226 30.2493 1.8153 31.4278 4.10172L44.9156 30.0947L47.7965 31.6591L33.1301 3.3797C31.8206 0.73226 28.416 -0.350782 25.666 0.852598ZM10.4759 18.0609C10.214 18.1813 9.95208 18.3016 9.69019 18.5423C12.0473 17.9406 14.5353 19.0236 15.5829 21.1897L25.4041 40.0828L28.285 41.6472L17.2853 20.4677C16.1067 17.9406 13.0949 16.8575 10.4759 18.0609Z" fill="#EBA352"/>
<path d="M76.9982 14.4508C73.4626 11.9237 67.7008 14.6914 64.8199 23.3558C62.8557 29.3727 62.5938 31.1777 58.4034 32.9828L56.0463 28.5303C56.0463 28.5303 18.8567 45.0166 20.2971 47.664C20.2971 47.664 24.7494 60.4199 32.3445 66.3164C43.6061 75.2214 69.927 65.7147 71.1055 42.7302C71.7603 29.3727 80.7958 17.2185 76.9982 14.4508Z" fill="#FFDD67"/>
<path d="M76.9982 14.4508C76.3435 13.9694 75.5578 13.7287 74.7721 13.6084C74.9031 13.7287 75.165 13.7287 75.2959 13.8491C79.2244 16.6168 75.165 22.9948 72.9388 28.771C71.1055 33.3438 69.5341 38.037 69.796 42.6098C70.8436 62.5859 48.9751 72.0926 35.8801 68.4825C48.7132 73.4164 72.546 64.03 71.4984 43.2115C71.2365 38.6387 72.6769 34.1862 74.6412 29.3727C76.7364 23.5964 80.7958 17.2185 76.9982 14.4508Z" fill="#EBA352"/>
<path d="M59.582 32.5015C51.4632 33.3438 39.5468 44.0539 47.9275 55.7267C41.7729 43.9336 51.856 35.9913 58.2726 33.2235C58.9273 32.7421 59.582 32.5015 59.582 32.5015Z" fill="#EBA352"/>
</svg>
